# xmcd CD database file
#
# Track frame offsets:
#	187
#	17415
#	36060
#	57572
#	75900
#	94807
#	124617
#	141635
#	159445
#	165557
#
# Disc length: 2422 seconds
#
# Revision: 2
# Processed by: cddbd v1.5.1PL0 Copyright (c) Steve Scherf et al.
# Submitted via: CDex 1.51
#
DISCID=7609740a
DTITLE=Daryl Hall and John Oates - X-Static
DYEAR=1979
DGENRE=Rock
TTITLE0=The Woman Comes And Goes
TTITLE1=Wait For Me
TTITLE2=Portable Radio
TTITLE3=All You Want Is Heaven
TTITLE4=Who Said The World Was Fair
TTITLE5=Running From Paradise
TTITLE6=Number One
TTITLE7=Bebop/Drop
TTITLE8=Hallofon
TTITLE9=Intravino
EXTD=YEAR: 1979
EXTT0=
EXTT1=
EXTT2=
EXTT3=
EXTT4=
EXTT5=
EXTT6=
EXTT7=
EXTT8=
EXTT9=
PLAYORDER=
